<?xml version="1.0" standalone="no"?>
<!DOCTYPE svg PUBLIC "-//W3C//DTD SVG 20010904//EN"
 "http://www.w3.org/TR/2001/REC-SVG-20010904/DTD/svg10.dtd">
<svg version="1.0" xmlns="http://www.w3.org/2000/svg"
 width="280.000000pt" height="280.000000pt" viewBox="0 0 280.000000 280.000000"
 preserveAspectRatio="xMidYMid meet">

<g transform="translate(0.000000,280.000000) scale(0.100000,-0.100000)"
fill="#000000" stroke="none">
<path d="M1047 2212 c-180 -180 -327 -333 -327 -340 0 -9 50 -12 216 -12 l217
0 108 107 c141 138 138 138 262 15 51 -51 98 -92 105 -92 9 0 12 52 12 218 l0
217 -108 108 c-79 79 -114 107 -132 107 -20 0 -98 -73 -353 -328z"/>
<path d="M1860 1864 l0 -217 107 -108 c139 -142 139 -138 9 -268 -53 -53 -94
-100 -90 -104 4 -4 104 -7 222 -7 l215 0 108 107 c82 81 109 113 109 132 0 21
-68 94 -328 354 -180 180 -333 327 -340 327 -9 0 -12 -50 -12 -216z"/>
<path d="M1207 1592 c-127 -127 -167 -173 -167 -192 0 -36 324 -360 360 -360
36 0 360 324 360 360 0 36 -324 360 -360 360 -19 0 -65 -40 -193 -168z"/>
<path d="M367 1531 c-75 -76 -107 -115 -107 -132 0 -17 82 -106 327 -351 180
-180 333 -328 340 -328 10 0 13 48 13 216 l0 217 -105 107 c-140 141 -140 141
-11 269 52 52 93 98 90 103 -3 4 -103 8 -223 8 l-217 0 -107 -109z"/>
<path d="M1540 835 c-141 -140 -141 -140 -269 -11 -52 52 -98 93 -103 90 -4
-3 -8 -103 -8 -222 l0 -216 108 -108 c78 -78 115 -108 132 -108 19 0 103 78
352 327 180 180 328 333 328 340 0 10 -48 13 -216 13 l-217 0 -107 -105z"/>
</g>
</svg>
